<svg width="48" height="48" viewBox="0 0 48 48" fill="none" xmlns="http://www.w3.org/2000/svg">
<path d="M48 24C48 37.2548 37.2548 48 24 48C10.7452 48 0 37.2548 0 24C0 10.7452 10.7452 0 24 0C37.2548 0 48 10.7452 48 24Z" fill="#FDFBE2"/>
<path d="M27.54 38.612C24.828 38.612 22.524 38.288 20.628 37.64C18.756 36.992 17.1 36.02 15.66 34.724C14.796 33.932 14.076 33.092 13.5 32.204C12.948 31.316 12.504 30.416 12.168 29.504C11.856 28.592 11.628 27.68 11.484 26.768C11.364 25.832 11.304 24.932 11.304 24.068C11.304 23.468 11.364 22.772 11.484 21.98C11.604 21.164 11.808 20.324 12.096 19.46C12.408 18.572 12.828 17.684 13.356 16.796C13.884 15.884 14.544 15.032 15.336 14.24C15.864 13.712 16.476 13.208 17.172 12.728C17.868 12.248 18.66 11.84 19.548 11.504C20.436 11.168 21.432 10.904 22.536 10.712C23.664 10.496 24.924 10.388 26.316 10.388C27.036 10.388 27.864 10.424 28.8 10.496C29.736 10.544 30.648 10.652 31.536 10.82C32.232 10.94 32.868 11.048 33.444 11.144C34.044 11.24 34.632 11.312 35.208 11.36C35.4 11.384 35.52 11.432 35.568 11.504C35.64 11.552 35.676 11.636 35.676 11.756C35.676 11.9 35.652 12.116 35.604 12.404C35.58 12.668 35.544 13.124 35.496 13.772C35.472 14.06 35.448 14.396 35.424 14.78C35.424 15.14 35.424 15.5 35.424 15.86C35.424 16.22 35.412 16.544 35.388 16.832C35.388 17.12 35.388 17.336 35.388 17.48C35.364 17.984 35.256 18.236 35.064 18.236C34.872 18.236 34.776 17.984 34.776 17.48C34.776 16.784 34.644 16.1 34.38 15.428C34.116 14.756 33.744 14.216 33.264 13.808C32.64 13.256 31.68 12.776 30.384 12.368C29.088 11.96 27.648 11.756 26.064 11.756C24.864 11.756 23.82 11.84 22.932 12.008C22.044 12.152 21.264 12.356 20.592 12.62C19.944 12.86 19.392 13.136 18.936 13.448C18.48 13.76 18.096 14.072 17.784 14.384C16.464 15.656 15.588 17.084 15.156 18.668C14.748 20.228 14.544 21.932 14.544 23.78C14.544 25.508 14.856 27.164 15.48 28.748C16.128 30.332 17.016 31.736 18.144 32.96C19.296 34.16 20.664 35.132 22.248 35.876C23.856 36.596 25.62 36.956 27.54 36.956C28.908 36.956 30.108 36.848 31.14 36.632C32.196 36.392 33.084 35.9 33.804 35.156C34.188 34.748 34.488 34.232 34.704 33.608C34.944 32.96 35.088 32.468 35.136 32.132C35.208 31.772 35.328 31.592 35.496 31.592C35.592 31.592 35.652 31.652 35.676 31.772C35.724 31.868 35.748 31.988 35.748 32.132C35.748 32.204 35.724 32.432 35.676 32.816C35.628 33.176 35.568 33.596 35.496 34.076C35.424 34.556 35.34 35.048 35.244 35.552C35.148 36.032 35.052 36.428 34.956 36.74C34.836 37.076 34.728 37.304 34.632 37.424C34.56 37.52 34.356 37.64 34.02 37.784C33.66 37.928 33.228 38.048 32.724 38.144C32.22 38.264 31.68 38.348 31.104 38.396C30.528 38.468 29.928 38.516 29.304 38.54C28.704 38.588 28.116 38.612 27.54 38.612Z" fill="#344249"/>
</svg>
