<svg width="171" height="32" viewBox="0 0 171 32" fill="none" xmlns="http://www.w3.org/2000/svg">
<path d="M18.88 31.68C13.0667 31.68 8.49333 30.24 5.16 27.36C1.85333 24.4533 0.199997 20.5067 0.199997 15.52C0.199997 11.0667 1.74666 7.42667 4.84 4.6C7.96 1.74667 12.1867 0.32 17.52 0.32C19.36 0.32 21.2933 0.453333 23.32 0.719999C24.2533 0.906665 25.5867 1.13333 27.32 1.4C27.72 1.42667 27.92 1.58667 27.92 1.88C27.92 1.96 27.8933 2.18667 27.84 2.56C27.7867 3.04 27.7467 3.54667 27.72 4.08C27.6933 5.25333 27.6533 6.69333 27.6 8.4C27.5467 9.01333 27.3867 9.32 27.12 9.32C26.8533 9.32 26.72 9.02667 26.72 8.44C26.6933 7.05333 26.1733 5.82667 25.16 4.76C24.4667 4.04 23.4133 3.45333 22 3C20.48 2.52 18.8267 2.28 17.04 2.28C13.84 2.28 11.3333 3.10667 9.52 4.76C7.06666 7 5.84 10.4533 5.84 15.12C5.84 19.52 7.26666 23.08 10.12 25.8C12.6 28.1733 15.3733 29.36 18.44 29.36C20.1467 29.36 21.4667 29.2533 22.4 29.04C23.8133 28.72 24.9333 28.08 25.76 27.12C26.48 26.32 26.9333 25.44 27.12 24.48C27.2267 23.9467 27.4 23.68 27.64 23.68C27.88 23.68 28 23.88 28 24.28C28 24.5733 27.9067 25.3467 27.72 26.6C27.5067 27.9867 27.3067 28.9733 27.12 29.56C26.96 30.1467 26.6133 30.5467 26.08 30.76C24.56 31.3733 22.16 31.68 18.88 31.68Z" fill="#080822"/>
<path d="M36.5522 19.52V12.48C36.5522 7.70667 36.5255 4.88 36.4722 4C36.3922 2.72 35.9389 1.97333 35.1122 1.76C34.6589 1.65333 34.1922 1.6 33.7122 1.6C33.2589 1.6 33.0322 1.46667 33.0322 1.2C33.0322 0.986666 33.3522 0.88 33.9922 0.88C34.5255 0.88 35.4322 0.906666 36.7122 0.959999C38.0189 0.986665 38.8455 0.999998 39.1922 0.999998C39.4855 0.999998 40.2322 0.986665 41.4322 0.959999C42.6322 0.906666 43.5122 0.88 44.0722 0.88C44.6322 0.88 44.9122 0.986666 44.9122 1.2C44.9122 1.46667 44.7122 1.6 44.3122 1.6C43.9389 1.6 43.5255 1.64 43.0722 1.72C42.1655 1.88 41.6722 2.64 41.5922 4C41.5389 4.88 41.5122 7.70667 41.5122 12.48V19.52C41.5122 24.2933 41.5655 27.2133 41.6722 28.28C41.7789 29.4533 42.3122 30.1067 43.2722 30.24C44.0455 30.3467 44.7255 30.4 45.3122 30.4C45.7389 30.4 45.9522 30.5067 45.9522 30.72C45.9522 30.9867 45.6989 31.12 45.1922 31.12C44.1789 31.12 42.9389 31.0933 41.4722 31.04C40.0322 31.0133 39.1922 31 38.9522 31C38.7122 31 37.9522 31.0133 36.6722 31.04C35.4189 31.0933 34.4989 31.12 33.9122 31.12C33.3789 31.12 33.1122 30.9867 33.1122 30.72C33.1122 30.5333 33.4055 30.4133 33.9922 30.36C34.3922 30.3067 34.7922 30.2667 35.1922 30.24C35.8322 30.1067 36.2189 29.4533 36.3522 28.28C36.4855 27.08 36.5522 24.16 36.5522 19.52Z" fill="#080822"/>
<path d="M68.9581 31.68C63.1448 31.68 58.5715 30.24 55.2381 27.36C51.9315 24.4533 50.2781 20.5067 50.2781 15.52C50.2781 11.0667 51.8248 7.42667 54.9181 4.6C58.0381 1.74667 62.2648 0.32 67.5981 0.32C69.4381 0.32 71.3715 0.453333 73.3981 0.719999C74.3315 0.906665 75.6648 1.13333 77.3981 1.4C77.7981 1.42667 77.9981 1.58667 77.9981 1.88C77.9981 1.96 77.9715 2.18667 77.9181 2.56C77.8648 3.04 77.8248 3.54667 77.7981 4.08C77.7715 5.25333 77.7315 6.69333 77.6781 8.4C77.6248 9.01333 77.4648 9.32 77.1981 9.32C76.9315 9.32 76.7981 9.02667 76.7981 8.44C76.7715 7.05333 76.2515 5.82667 75.2381 4.76C74.5448 4.04 73.4915 3.45333 72.0781 3C70.5581 2.52 68.9048 2.28 67.1181 2.28C63.9181 2.28 61.4115 3.10667 59.5981 4.76C57.1448 7 55.9181 10.4533 55.9181 15.12C55.9181 19.52 57.3448 23.08 60.1981 25.8C62.6781 28.1733 65.4515 29.36 68.5181 29.36C70.2248 29.36 71.5448 29.2533 72.4781 29.04C73.8915 28.72 75.0115 28.08 75.8381 27.12C76.5581 26.32 77.0115 25.44 77.1981 24.48C77.3048 23.9467 77.4781 23.68 77.7181 23.68C77.9581 23.68 78.0781 23.88 78.0781 24.28C78.0781 24.5733 77.9848 25.3467 77.7981 26.6C77.5848 27.9867 77.3848 28.9733 77.1981 29.56C77.0381 30.1467 76.6915 30.5467 76.1581 30.76C74.6381 31.3733 72.2381 31.68 68.9581 31.68Z" fill="#080822"/>
<path d="M86.6303 19.52V12.48C86.6303 7.70667 86.6036 4.88 86.5503 4C86.4703 2.72 85.897 1.96 84.8303 1.72C84.457 1.64 83.937 1.6 83.2703 1.6C82.817 1.6 82.5903 1.48 82.5903 1.24C82.5903 1 82.8836 0.88 83.4703 0.88C84.2703 0.88 85.3503 0.906666 86.7103 0.959999C88.097 0.986665 88.937 0.999998 89.2303 0.999998C95.5503 0.999998 98.8836 0.986665 99.2303 0.959999C99.9236 0.906666 100.497 0.826666 100.95 0.719999C101.404 0.613332 101.617 0.559999 101.59 0.559999C101.75 0.559999 101.83 0.679999 101.83 0.919999C101.83 0.946665 101.79 1.18667 101.71 1.64C101.63 2.17333 101.564 2.8 101.51 3.52C101.484 4.24 101.417 5.12 101.31 6.16C101.257 6.45333 101.124 6.6 100.91 6.6C100.724 6.6 100.604 6.45333 100.55 6.16C100.524 5.86667 100.497 5.58667 100.47 5.32C100.444 5.05333 100.39 4.81333 100.31 4.6C99.9903 3.82667 99.097 3.34667 97.6303 3.16C96.7236 3.05333 94.8303 3 91.9503 3C91.7636 3 91.6703 3.13333 91.6703 3.4V13.52C91.6703 13.8133 91.7636 13.96 91.9503 13.96C95.6036 13.96 97.737 13.9333 98.3503 13.88C98.8036 13.8533 99.1503 13.8133 99.3903 13.76C99.7903 13.6533 100.084 13.4933 100.27 13.28C100.59 12.9333 100.804 12.76 100.91 12.76C101.097 12.76 101.19 12.8667 101.19 13.08C101.19 13.1067 101.15 13.3733 101.07 13.88C100.99 14.4933 100.924 15.2 100.87 16C100.764 17.52 100.71 18.4133 100.71 18.68C100.71 19.1867 100.59 19.44 100.35 19.44C100.11 19.44 99.9903 19.3067 99.9903 19.04C99.9903 18.7467 99.937 18.28 99.8303 17.64C99.617 16.7333 98.8703 16.2133 97.5903 16.08C96.8436 16 94.9503 15.96 91.9103 15.96C91.7503 15.96 91.6703 16.0933 91.6703 16.36V25.72C91.7236 27.1333 92.0303 28.0533 92.5903 28.48C93.177 28.88 94.4703 29.08 96.4703 29.08C98.2836 29.08 99.537 28.92 100.23 28.6C101.164 28.1733 101.764 27.1867 102.03 25.64C102.11 25.24 102.257 25.04 102.47 25.04C102.684 25.04 102.79 25.28 102.79 25.76C102.79 27.3867 102.617 28.8667 102.27 30.2C102.137 30.68 101.95 30.9733 101.71 31.08C101.47 31.1867 100.937 31.24 100.11 31.24C97.7903 31.24 95.4836 31.2 93.1903 31.12C90.897 31.04 89.5103 31 89.0303 31C88.7903 31 88.0303 31.0133 86.7503 31.04C85.497 31.0933 84.577 31.12 83.9903 31.12C83.457 31.12 83.1903 30.9867 83.1903 30.72C83.1903 30.5333 83.4836 30.4133 84.0703 30.36C84.4703 30.3067 84.8703 30.2667 85.2703 30.24C85.8836 30.1067 86.2703 29.3733 86.4303 28.04C86.5636 27 86.6303 24.16 86.6303 19.52Z" fill="#080822"/>
<path d="M111.904 19.52V12.48C111.904 7.70667 111.877 4.88 111.824 4C111.744 2.72 111.17 1.96 110.104 1.72C109.73 1.64 109.21 1.6 108.544 1.6C108.09 1.6 107.864 1.48 107.864 1.24C107.864 1 108.157 0.88 108.744 0.88C109.57 0.88 110.65 0.906666 111.984 0.959999C113.317 0.986665 114.064 0.999998 114.224 0.999998C114.677 0.999998 115.624 0.986665 117.064 0.959999C118.53 0.906666 119.464 0.88 119.864 0.88C123.09 0.88 125.544 1.45333 127.224 2.6C127.89 3.05333 128.477 3.73333 128.984 4.64C129.624 5.70667 129.944 6.85333 129.944 8.08C129.944 11.2 128.184 14.1867 124.664 17.04C127.57 20.72 129.17 22.72 129.464 23.04C131.01 24.9867 132.304 26.4933 133.344 27.56C134.81 29.08 136.304 29.9867 137.824 30.28C138.144 30.3067 138.45 30.3333 138.744 30.36C139.197 30.4133 139.424 30.5333 139.424 30.72C139.424 30.9867 139.17 31.12 138.664 31.12H134.864C132.944 31.12 131.517 30.8667 130.584 30.36C129.277 29.6667 127.45 27.7067 125.104 24.48C123.957 22.8533 122.637 21.0133 121.144 18.96C120.984 18.7733 120.744 18.68 120.424 18.68L116.944 18.6C116.73 18.6 116.624 18.7067 116.624 18.92V19.48C116.624 24.0133 116.69 26.8667 116.824 28.04C116.984 29.4 117.504 30.1333 118.384 30.24C119.184 30.3467 119.837 30.4 120.344 30.4C120.664 30.4 120.824 30.5067 120.824 30.72C120.824 30.9867 120.557 31.12 120.024 31.12C119.117 31.12 117.917 31.0933 116.424 31.04C114.957 31.0133 114.197 31 114.144 31C113.957 31 113.25 31.0133 112.024 31.04C110.797 31.0933 109.877 31.12 109.264 31.12C108.73 31.12 108.464 30.9867 108.464 30.72C108.464 30.5333 108.757 30.4133 109.344 30.36C109.744 30.3067 110.144 30.2667 110.544 30.24C111.157 30.1067 111.544 29.3733 111.704 28.04C111.837 27 111.904 24.16 111.904 19.52ZM116.624 3.48V15.64C116.624 16.04 116.744 16.28 116.984 16.36C117.73 16.6267 118.744 16.76 120.024 16.76C121.304 16.76 122.25 16.5333 122.864 16.08C124.437 14.9333 125.224 12.9333 125.224 10.08C125.224 7.54667 124.504 5.61333 123.064 4.28C121.917 3.26667 120.597 2.76 119.104 2.76C117.824 2.76 117.064 2.84 116.824 3C116.69 3.08 116.624 3.24 116.624 3.48Z" fill="#080822"/>
<path d="M153.859 31.68C148.579 31.68 144.459 29.9467 141.499 26.48C138.992 23.5733 137.739 20.08 137.739 16C137.739 11.9733 138.992 8.50667 141.499 5.6C144.512 2.08 148.766 0.32 154.259 0.32C159.219 0.32 163.152 1.66667 166.059 4.36C168.966 7.05333 170.419 10.6933 170.419 15.28C170.419 19.9733 168.926 23.8533 165.939 26.92C162.872 30.0933 158.846 31.68 153.859 31.68ZM155.539 29.68C157.779 29.68 159.672 28.9733 161.219 27.56C163.619 25.4 164.819 21.8 164.819 16.76C164.819 12.3867 163.686 8.84 161.419 6.12C159.232 3.53333 156.459 2.24 153.099 2.24C150.352 2.24 148.139 3.08 146.459 4.76C144.326 6.89333 143.259 10.2267 143.259 14.76C143.259 19.0533 144.352 22.5733 146.539 25.32C148.806 28.2267 151.806 29.68 155.539 29.68Z" fill="#080822"/>
</svg>
